<?xml version="1.0" encoding="utf-8"?>
<!-- Generator: Adobe Illustrator 27.8.1, SVG Export Plug-In . SVG Version: 6.00 Build 0)  -->
<svg version="1.1" id="Layer_1" xmlns="http://www.w3.org/2000/svg" xmlns:xlink="http://www.w3.org/1999/xlink" x="0px" y="0px"
	 viewBox="0 0 62 56" style="enable-background:new 0 0 62 56;" xml:space="preserve">
<style type="text/css">
	.st0{fill:#754FFE;}
</style>
<g>
	<path class="st0" d="M1.2,38.7c0-2.8,0-5.6,0-8.3c0-3.6,2-5.8,5.6-6c4-0.2,7.9,0,11.9,0c1.2,0,2.2,0.6,3,1.4c2.8,2.6,5.6,5,8.1,7.9
		c0.6,0.8,0.8,0.2,1.2-0.2c2.2-2.4,4.6-4.8,7-7c1.8-1.8,4.4-1,5,1.2c0.2,1,0,2-0.8,2.6c-3.4,3.4-6.6,6.8-9.9,9.9
		c-1.4,1.4-3,1.2-4.6-0.2c-1.8-1.6-3.4-3.2-5-4.8c-0.2-0.2-0.4-0.8-1-0.6c-0.4,0.2-0.2,0.6-0.2,1c0,3.8,0,7.5,0,11.5
		c0,1.2-0.4,1.6-1.6,1.6c-5.8,0-11.5,0-17.3,0c-1.2,0-1.6-0.4-1.6-1.6C1.2,44.7,1.2,41.7,1.2,38.7z"/>
	<path class="st0" d="M60.8,28c0,6.4,0,12.9,0,19.3c0,1.2-0.4,1.8-1.6,1.8c-10.1,0-20.3,0-30.4,0c-1.2,0-1.6-0.4-1.6-1.6
		c0-3.2-0.2-2.8,2.8-2.8c8.1,0,16.3,0,24.6,0c1.6,0,1.6,0,1.6-1.8c0-9.7,0-19.3,0-29c0-1.6,0-1.6-1.6-1.6c-7.2,0-14.1,0-21.3,0
		c-1.2,0-1.6,0.2-1.6,1.6c0,4.2,0,8.1,0,12.3c0,1.2-0.2,2.4-1.2,3.4c-0.2,0.2-0.6,0.6-1,0.2c-1-1-2.2-1.8-2.2-3.4c0-6,0-11.9,0-17.9
		c0-1,0.4-1.4,1.4-1.4c10.3,0,20.5,0,30.8,0c1,0,1.4,0.4,1.4,1.4C60.8,14.9,60.8,21.4,60.8,28z"/>
	<path class="st0" d="M20.1,14.7c0,4.4-3.4,7.9-7.7,7.9s-7.9-3.6-7.9-7.9s3.4-7.7,7.9-7.7C16.7,6.9,20.1,10.3,20.1,14.7z"/>
</g>
</svg>
