<svg width="200" height="29" xmlns="http://www.w3.org/2000/svg">
<style type="text/css">
	.st0{fill:#754FFE;}
</style>

<path id="Name" d="M42.4,22.1h-3.9V8.2h-4V4.9h11.8v3.3h-4V22.1z M54.4,8.6c0.4,0,0.9,0,1.2,0.1l-0.3,3.8c-5.7-1.7-3.8,6.5-4.1,9.5
	h-3.8V8.9h2.9l0.6,2.1H51C51.7,9.8,52.9,8.6,54.4,8.6z M62.6,8.6c7.1-0.6,4.5,9.4,4.9,13.4h-2.7l-0.7-1.8H64
	c-7.8,7.5-12.3-8.1-0.3-6.6c0.4-3.2-3.2-2.3-5-1.3l-1.1-2.7C59.1,9,60.8,8.6,62.6,8.6z M62.6,16.1c-6.4,1.1,1.5,7,1.1,0L62.6,16.1z
	 M72.5,3.6c2.7-0.3,2.7,4.1,0,3.8C69.8,7.7,69.8,3.3,72.5,3.6z M74.5,8.9v13.2h-3.8V8.9H74.5z M84.9,8.6c6.4-0.3,3.7,9.7,4.2,13.4
	h-3.8c-0.1-1.5,0.4-8.4-0.4-9.6c-4.9-3.4-3.2,7.2-3.5,9.6h-3.8V8.9h3l0.5,1.7h0.2C82,9.2,83.4,8.6,84.9,8.6z M94.1,3.6
	c2.7-0.3,2.7,4.1,0,3.8C91.4,7.7,91.4,3.3,94.1,3.6z M96.1,8.9v13.2h-3.8V8.9H96.1z M106.5,8.6c6.4-0.3,3.7,9.7,4.2,13.4h-3.8
	c-0.1-1.5,0.4-8.4-0.4-9.6c-4.9-3.4-3.2,7.2-3.5,9.6h-3.8V8.9h3l0.5,1.7h0.2C103.6,9.2,105,8.6,106.5,8.6z M117.8,8.6
	c1.6,0,2.6,0.6,3.4,1.9h0.1l0.3-1.7h3.3c-0.4,8.5,3.4,23-11,18.1v-3.2c3.8,1.6,7.9,1.9,7.3-3.4H121C113.8,28.7,109.2,8.9,117.8,8.6z
	 M119.1,11.8c-3.1,0.3-2.7,8.9,1,7.2C121.9,17.9,121.9,11.6,119.1,11.8z M139.1,4.9c9.2-0.4,7.2,12.9-1.4,11.2v5.9h-3.9V4.9H139.1z
	 M138.9,8.2h-1.2v4.7C141.3,13.9,142.8,8.3,138.9,8.2z M158.9,15.4c0.8,9-12.7,8.9-12,0C146.1,6.5,159.7,6.5,158.9,15.4z
	 M150.8,15.5c0.2,7.3,5.8,2.8,4-2.1C153.7,9.9,150.2,12.3,150.8,15.5z M168.5,8.6c0.4,0,0.9,0,1.2,0.1l-0.3,3.8
	c-5.7-1.7-3.8,6.5-4.1,9.5h-3.8V8.9h2.9l0.6,2.1h0.2C165.8,9.8,167,8.6,168.5,8.6z M177.2,19.2c0.7,0,1.3-0.2,2-0.4v2.9
	c-8.1,3.2-7.2-4.3-7.1-9.8h-1.5v-1.7l1.8-1.2l1-2.8h2.5v2.7h3.1v3h-3.1C176.3,13,174.8,19.4,177.2,19.2z M186.9,8.6
	c7.1-0.6,4.5,9.4,4.9,13.4h-2.7l-0.7-1.8h-0.1c-7.8,7.5-12.3-8.1-0.3-6.6c0.4-3.2-3.2-2.3-5-1.3l-1.1-2.7
	C183.3,9,185.1,8.6,186.9,8.6z M186.9,16.1c-6.4,1.1,1.5,6.9,1.1,0L186.9,16.1z M198.7,22.1h-3.8V3.8h3.8V22.1z"/>
<g>
	<path class="st0" d="M2,19.9c0-1.4,0-2.8,0-4.2c0-1.8,1-2.9,2.8-3c2-0.1,4,0,6,0c0.6,0,1.1,0.3,1.5,0.7c1.4,1.3,2.8,2.5,4.1,4
		c0.3,0.4,0.4,0.1,0.6-0.1c1.1-1.2,2.3-2.4,3.5-3.5c0.9-0.9,2.2-0.5,2.5,0.6c0.1,0.5,0,1-0.4,1.3c-1.7,1.7-3.3,3.4-5,5
		c-0.7,0.7-1.5,0.6-2.3-0.1c-0.9-0.8-1.7-1.6-2.5-2.4c-0.1-0.1-0.2-0.4-0.5-0.3c-0.2,0.1-0.1,0.3-0.1,0.5c0,1.9,0,3.8,0,5.8
		c0,0.6-0.2,0.8-0.8,0.8c-2.9,0-5.8,0-8.7,0c-0.6,0-0.8-0.2-0.8-0.8C2,22.9,2,21.4,2,19.9z"/>
	<path class="st0" d="M32,14.5c0,3.2,0,6.5,0,9.7c0,0.6-0.2,0.9-0.8,0.9c-5.1,0-10.2,0-15.3,0c-0.6,0-0.8-0.2-0.8-0.8
		c0-1.6-0.1-1.4,1.4-1.4c4.1,0,8.2,0,12.4,0c0.8,0,0.8,0,0.8-0.9c0-4.9,0-9.7,0-14.6c0-0.8,0-0.8-0.8-0.8c-3.6,0-7.1,0-10.7,0
		c-0.6,0-0.8,0.1-0.8,0.8c0,2.1,0,4.1,0,6.2c0,0.6-0.1,1.2-0.6,1.7c-0.1,0.1-0.3,0.3-0.5,0.1c-0.5-0.5-1.1-0.9-1.1-1.7c0-3,0-6,0-9
		c0-0.5,0.2-0.7,0.7-0.7c5.2,0,10.3,0,15.5,0c0.5,0,0.7,0.2,0.7,0.7C32,7.9,32,11.2,32,14.5z"/>
	<path class="st0" d="M11.5,7.8c0,2.2-1.7,4-3.9,4c-2.2,0-4-1.8-4-4c0-2.2,1.7-3.9,4-3.9C9.8,3.9,11.5,5.6,11.5,7.8z"/>
</g>
</svg>
