<svg width="64" height="64" xmlns="http://www.w3.org/2000/svg">
    <style>
      .cls-1 {
        fill: #754ffe;
        stroke-width: 0px;
      }
    </style>
  <path class="cls-1" d="m.21,43.44v-8.9c0-3.81,2.12-6.15,5.93-6.36,4.24-.21,8.48,0,12.72,0,1.27,0,2.33.64,3.18,1.48,2.97,2.75,5.93,5.3,8.69,8.48.64.85.85.21,1.27-.21,2.33-2.54,4.87-5.09,7.42-7.42,1.91-1.91,4.66-1.06,5.3,1.27.21,1.06,0,2.12-.85,2.75-3.6,3.6-6.99,7.21-10.6,10.6-1.48,1.48-3.18,1.27-4.87-.21-1.91-1.7-3.6-3.39-5.3-5.09-.21-.21-.42-.85-1.06-.64-.42.21-.21.64-.21,1.06v12.29c0,1.27-.42,1.7-1.7,1.7H1.7c-1.27,0-1.7-.42-1.7-1.7.21-2.75.21-5.93.21-9.11Z"/>
  <path class="cls-1" d="m63.79,32v20.56c0,1.27-.42,1.91-1.7,1.91H29.67c-1.27,0-1.7-.42-1.7-1.7,0-3.39-.21-2.97,2.97-2.97h26.28q1.7,0,1.7-1.91v-30.94q0-1.7-1.7-1.7h-22.68c-1.27,0-1.7.21-1.7,1.7v13.14c0,1.27-.21,2.54-1.27,3.6-.21.21-.64.64-1.06.21-1.06-1.06-2.33-1.91-2.33-3.6V11.23c0-1.06.42-1.48,1.48-1.48h32.85c1.06,0,1.48.42,1.48,1.48-.21,6.78-.21,13.77-.21,20.77Z"/>
  <path class="cls-1" d="m20.34,17.8c0,4.66-3.6,8.48-8.26,8.48s-8.48-3.81-8.48-8.48,3.6-8.26,8.48-8.26,8.26,3.6,8.26,8.26Z"/>
</svg>